<?xml version="1.0" encoding="utf-8"?>
<!-- Generator: Adobe Illustrator 16.2.1, SVG Export Plug-In . SVG Version: 6.00 Build 0)  -->
<!DOCTYPE svg PUBLIC "-//W3C//DTD SVG 1.1//EN" "http://www.w3.org/Graphics/SVG/1.1/DTD/svg11.dtd">
<svg version="1.1" id="Layer_1" xmlns="http://www.w3.org/2000/svg" xmlns:xlink="http://www.w3.org/1999/xlink" x="0px" y="0px"
	 width="1024px" height="768px" viewBox="0 0 1024 768" enable-background="new 0 0 1024 768" xml:space="preserve">
<path fill="#FFFFFF" d="M467.236,479.053c-8.328-8.871-12.345-20.817-12.016-36.075h-56.515
	c2.699,31.532,12.401,55.412,29.22,71.688c16.877,16.343,40.156,25.51,70.15,27.665v34.075h23.583v-34.075
	c20.046-1.3,36.462-5.397,49.324-12.022c12.713-6.714,22.98-14.342,30.594-22.892c7.645-8.484,12.879-17.19,15.814-26.217
	c2.921-8.945,4.402-16.335,4.402-22.193c0-6.632-0.461-14.269-1.391-22.826c-0.932-8.614-3.941-17.1-9.021-25.655
	c-5.02-8.561-12.96-16.738-23.592-24.594c-10.713-7.943-25.896-14.577-45.711-19.813c-3.776-1.147-7.323-2.003-10.574-2.855
	c-3.373-0.843-6.605-1.534-9.85-2.382v-70.924c9.085,0,16.804,3.711,23.196,11.261c6.483,7.478,9.783,16.502,10.104,27.212h56.811
	c-0.765-13.878-3.701-25.899-8.788-35.992c-5.093-10.258-11.644-18.659-19.593-25.526c-8.08-6.776-17.338-12.101-27.901-16.034
	c-10.552-3.855-21.808-6.394-33.829-7.78V212.35h-23.583v30.747c-12.031,0.765-23.666,3.082-34.923,7.089
	c-11.185,3.781-21.041,9.245-29.683,16.342c-8.476,7.097-15.347,15.799-20.498,26.205c-5.242,10.409-7.856,22.506-7.856,36.08
	c0,13.344,12.658,15.307,17.2,24.26c4.468,8.933,30.534-10.775,18.188,22.428c7.554,6.012,5.855,20.073,15.482,23.537
	c9.562,3.703,19.339,6.871,29.203,9.546c2.699,0.552,5.168,1.086,7.48,1.794c2.246,0.609,4.016,1.234,5.406,1.761v83.722
	C485.742,493.452,475.415,487.906,467.236,479.053z M521.66,418.925c15.726,4.319,26.908,9.103,33.45,14.261
	c6.55,5.167,9.801,13.02,9.801,23.438c0,6.394-1.311,11.947-4.018,16.572c-2.697,4.696-6.015,8.624-10.171,11.792
	c-4.164,3.231-8.87,5.7-14.027,7.479c-5.188,1.695-10.264,2.849-15.035,3.392V418.925L521.66,418.925z M470.396,343.606
	c-5.538-4.78-8.41-11.562-8.41-20.43c0-5.559,1.004-10.409,3.012-14.562c2.008-4.152,4.707-7.628,8.179-10.476
	c3.481-2.773,7.397-4.855,11.709-6.18c4.246-1.383,8.648-2.004,13.191-2.004v65.291
	C485.191,352.321,476.032,348.462,470.396,343.606z M909.005,609.7V160.772H632.123c46.477,51.788,76.536,133.042,76.536,224.464
	c0,76.998-21.325,146.783-55.821,197.828c-6.461,9.562,14.164,2.561,6.833,10.731L655.5,609.7H909.005z M0.188,42.833v682.424
	h1024.975V42.833H0.188z M967.732,668.438H57.616V101.958h910.117L967.732,668.438L967.732,668.438z M316.69,385.236
	c0-78.475,22.088-149.458,57.8-200.743c5.893-8.462-18.577,1.356-11.981-5.978l3.99-17.744H116.352V609.7h276.89
	C346.668,557.908,316.69,476.657,316.69,385.236z"/>
<path fill="#D13731" d="M512.683,21.565c-200.194,0-362.481,162.286-362.481,362.478c0,200.186,162.287,362.474,362.481,362.474
	c200.188,0,362.476-162.288,362.476-362.474C875.157,183.853,712.869,21.565,512.683,21.565z M765.048,384.043
	c0,49.684-14.491,96.023-39.386,135.126l-348.113-348.11c39.101-24.895,85.439-39.386,135.132-39.386
	C651.838,131.674,765.048,244.884,765.048,384.043z M260.309,384.043c0-49.685,14.49-96.023,39.386-135.122L647.8,597.03
	c-39.101,24.887-85.433,39.385-135.118,39.385C373.512,636.416,260.309,523.197,260.309,384.043z"/>
</svg>
