<?xml version="1.0" encoding="utf-8"?>
<!-- Generator: Adobe Illustrator 16.2.1, SVG Export Plug-In . SVG Version: 6.00 Build 0)  -->
<!DOCTYPE svg PUBLIC "-//W3C//DTD SVG 1.1//EN" "http://www.w3.org/Graphics/SVG/1.1/DTD/svg11.dtd">
<svg version="1.1" id="Layer_1" xmlns="http://www.w3.org/2000/svg" xmlns:xlink="http://www.w3.org/1999/xlink" x="0px" y="0px"
	 width="1024px" height="768px" viewBox="0 0 1024 768" enable-background="new 0 0 1024 768" xml:space="preserve">
<path fill="#FFFFFF" d="M467.236,479.053c-8.328-8.871-12.344-20.818-12.015-36.075h-56.515
	c2.699,31.532,12.401,55.412,29.22,71.688c16.877,16.343,40.156,25.51,70.15,27.665v34.075h23.583v-34.075
	c20.046-1.3,36.462-5.397,49.324-12.022c12.713-6.714,22.981-14.342,30.594-22.892c7.645-8.484,12.879-17.19,15.815-26.217
	c2.921-8.945,4.402-16.335,4.402-22.193c0-6.632-0.461-14.269-1.391-22.826c-0.931-8.615-3.941-17.1-9.021-25.656
	c-5.02-8.56-12.96-16.738-23.592-24.593c-10.713-7.944-25.896-14.578-45.711-19.814c-3.776-1.147-7.323-2.003-10.574-2.855
	c-3.373-0.843-6.606-1.535-9.85-2.382v-70.924c9.085,0,16.804,3.711,23.197,11.261c6.483,7.477,9.783,16.502,10.104,27.212h56.811
	c-0.765-13.878-3.702-25.9-8.788-35.992c-5.093-10.258-11.644-18.659-19.593-25.526c-8.08-6.776-17.338-12.101-27.902-16.034
	c-10.551-3.855-21.807-6.394-33.829-7.78V212.35h-23.583v30.747c-12.031,0.765-23.666,3.082-34.923,7.089
	c-11.184,3.781-21.041,9.245-29.682,16.342c-8.476,7.097-15.347,15.799-20.498,26.205c-5.242,10.409-7.857,22.506-7.857,36.08
	c0,13.343,2.312,24.509,6.854,33.462c4.468,8.933,10.559,16.421,18.187,22.428c7.554,6.012,16.202,10.87,25.829,14.334
	c9.562,3.703,19.339,6.871,29.204,9.546c2.699,0.552,5.167,1.086,7.48,1.794c2.246,0.609,4.016,1.234,5.406,1.761v83.721
	C485.742,493.452,475.415,487.906,467.236,479.053z M521.66,418.925c15.726,4.319,26.908,9.102,33.45,14.261
	c6.55,5.167,9.801,13.019,9.801,23.437c0,6.394-1.31,11.947-4.017,16.572c-2.698,4.697-6.015,8.624-10.171,11.792
	c-4.164,3.232-8.87,5.701-14.028,7.479c-5.187,1.695-10.263,2.848-15.035,3.391V418.925L521.66,418.925z M470.396,343.606
	c-5.538-4.78-8.41-11.562-8.41-20.429c0-5.559,1.004-10.409,3.012-14.563c2.008-4.152,4.707-7.628,8.179-10.476
	c3.481-2.773,7.397-4.855,11.709-6.18c4.246-1.383,8.648-2.004,13.191-2.004v65.291
	C485.191,352.321,476.032,348.462,470.396,343.606z M909.005,609.7V160.772H632.123c46.477,51.788,76.536,133.042,76.536,224.464
	c0,91.421-30.061,172.672-76.536,224.464H909.005z M0.188,42.833v682.424h1024.975V42.833H0.188z M967.732,668.438H57.616V101.958
	h910.117L967.732,668.438L967.732,668.438z M316.69,385.236c0-91.422,29.978-172.677,76.552-224.464h-276.89V609.7h276.89
	C346.668,557.908,316.69,476.657,316.69,385.236z"/>
<path fill="#D13731" d="M512.683,1.822c-211.098,0-382.225,171.125-382.225,382.221c0,211.09,171.127,382.217,382.225,382.217
	c211.091,0,382.218-171.127,382.218-382.217C894.9,172.948,723.773,1.822,512.683,1.822z M778.794,384.043
	c0,52.391-15.28,101.254-41.53,142.486L370.189,159.458c41.231-26.251,90.093-41.531,142.493-41.531
	C659.417,117.928,778.794,237.304,778.794,384.043z M246.563,384.043c0-52.391,15.28-101.253,41.531-142.481L655.16,608.631
	c-41.231,26.243-90.086,41.53-142.478,41.53C365.932,650.162,246.563,530.776,246.563,384.043z"/>
</svg>
