<?xml version="1.0" encoding="utf-8"?>
<!-- Generator: Adobe Illustrator 16.2.1, SVG Export Plug-In . SVG Version: 6.00 Build 0)  -->
<!DOCTYPE svg PUBLIC "-//W3C//DTD SVG 1.1//EN" "http://www.w3.org/Graphics/SVG/1.1/DTD/svg11.dtd">
<svg version="1.1" id="Layer_1" xmlns="http://www.w3.org/2000/svg" xmlns:xlink="http://www.w3.org/1999/xlink" x="0px" y="0px"
	 width="1024px" height="199px" viewBox="0 0 1024 199" enable-background="new 0 0 1024 199" xml:space="preserve">
<g>
	<rect x="711" y="57" fill="#FFFFFF" width="29" height="28"/>
	<path fill="#FFFFFF" d="M0,0v199h1024V0H0z M114,171H28V28h29v114h57V171z M171,171h-29V28h29V171z M284,113.778L256,171h-28.444
		L199,113.778V28h29v85.778l14,28.444l14-28.444V28h28V113.778z M398,57h-57v28h57v29h-57v28h57v29h-85V28h85V57z M597,171H455V28
		h29v114h28V28h28v114h29V28h28V171z M654,171h-28V28h28V171z M768,56.889V114h-28.444L768,171h-28.444L711,113.778V171h-28V28h85
		V56.889z M882,57h-57v28h57v29h-57v28h57v29h-86V28h86V57z M996,57h-57v28h57v86h-86v-29h57v-28h-57V28h86V57z"/>
</g>
</svg>
