<?xml version="1.0" encoding="utf-8"?>
<!-- Generator: Adobe Illustrator 16.2.1, SVG Export Plug-In . SVG Version: 6.00 Build 0)  -->
<!DOCTYPE svg PUBLIC "-//W3C//DTD SVG 1.1//EN" "http://www.w3.org/Graphics/SVG/1.1/DTD/svg11.dtd">
<svg version="1.1" id="Layer_1" xmlns="http://www.w3.org/2000/svg" xmlns:xlink="http://www.w3.org/1999/xlink" x="0px" y="0px"
	 width="1024px" height="204px" viewBox="0 0 1024 204" enable-background="new 0 0 1024 204" xml:space="preserve">
<g>
	<rect x="702" y="58" fill="#FFFFFF" width="29" height="29"/>
	<path fill="#FFFFFF" d="M0,0v204h1024V0H0z M117,175H29V29h30v117h58V175z M176,175h-30V29h30V175z M293,116.629L263.314,175
		h-29.257L205,116.629V29h29v87.629l14.5,29.257l14.5-29.257V29h30V116.629z M410,58h-59v29h59v30h-59v29h59v29h-88V29h88V58z
		 M585,175H439V29h29v117h29V29h30v117h29V29h29V175z M644,175h-30V29h30V175z M761,58.114V117h-29.571l29.257,58h-29.257
		L702,116.629V175h-29V29h88V58.114z M878,58h-59v29h59v30h-59v29h59v29h-88V29h88V58z M995,58h-59v29h59v88h-88v-29h58v-29h-58V29
		h88V58z"/>
</g>
</svg>
