<?xml version="1.0" encoding="utf-8"?>
<!-- Generator: Adobe Illustrator 16.2.1, SVG Export Plug-In . SVG Version: 6.00 Build 0)  -->
<!DOCTYPE svg PUBLIC "-//W3C//DTD SVG 1.1//EN" "http://www.w3.org/Graphics/SVG/1.1/DTD/svg11.dtd">
<svg version="1.1" id="Layer_1" xmlns="http://www.w3.org/2000/svg" xmlns:xlink="http://www.w3.org/1999/xlink" x="0px" y="0px"
	 width="1024px" height="768px" viewBox="0 0 1024 768" enable-background="new 0 0 1024 768" xml:space="preserve">
<path fill="#FFFFFF" d="M283.532,766.797h458.102V279.673H283.532V766.797z M599.126,377.209c0-14.797,11.983-26.781,26.802-26.781
	c14.783,0,26.781,11.983,26.781,26.781v282.238c0,14.797-11.998,26.802-26.781,26.802c-14.817,0-26.802-12.005-26.802-26.802
	V377.209z M485.788,377.209c0-14.783,12.005-26.795,26.795-26.795c14.783,0,26.795,12.012,26.795,26.795v282.238
	c0,14.797-12.012,26.795-26.795,26.795c-14.79,0-26.795-11.998-26.795-26.795V377.209z M372.458,377.209
	c0-14.797,12.004-26.795,26.795-26.795s26.788,11.998,26.788,26.795v282.238c0,14.797-11.997,26.795-26.788,26.795
	s-26.795-11.998-26.795-26.795V377.209z M764.321,96.06H664.72V79.764c0-43.42-35.18-78.589-78.59-78.6H439.028
	c-43.423,0.011-78.583,35.18-78.604,78.6V96.06h-99.58c-20.446,0-37.032,16.586-37.032,37.032v98.095h577.542v-98.095
	C801.354,112.646,784.768,96.06,764.321,96.06z M611.138,96.06H414l-0.007-16.296c0.042-13.821,11.22-24.999,25.035-25.017h147.103
	c13.81,0.018,25,11.195,25.007,25.017V96.06z"/>
<path fill="#D13731" d="M512.583,86.339c-187.963,0-340.336,152.376-340.336,340.332C172.247,614.628,324.62,767,512.583,767
	c187.957,0,340.329-152.372,340.329-340.329C852.912,238.715,700.54,86.339,512.583,86.339z M749.53,426.671
	c0,46.65-13.604,90.157-36.979,126.871L385.706,226.696c36.713-23.368,80.22-36.972,126.877-36.972
	C643.236,189.724,749.53,296.018,749.53,426.671z M275.628,426.671c0-46.649,13.604-90.158,36.979-126.87l326.839,326.846
	c-36.713,23.367-80.213,36.979-126.863,36.979C381.915,663.626,275.628,557.324,275.628,426.671z"/>
</svg>
