<?xml version="1.0" encoding="utf-8"?>
<!-- Generator: Adobe Illustrator 16.2.1, SVG Export Plug-In . SVG Version: 6.00 Build 0)  -->
<!DOCTYPE svg PUBLIC "-//W3C//DTD SVG 1.1//EN" "http://www.w3.org/Graphics/SVG/1.1/DTD/svg11.dtd">
<svg version="1.1" id="Layer_1" xmlns="http://www.w3.org/2000/svg" xmlns:xlink="http://www.w3.org/1999/xlink" x="0px" y="0px"
	 width="1024px" height="768px" viewBox="0 0 1024 768" enable-background="new 0 0 1024 768" xml:space="preserve">
<path fill="#FFFFFF" d="M512.119,285.158c-52.858,0-95.864,42.998-95.864,95.844c0,52.894,43.005,95.922,95.864,95.922
	c52.897,0,95.934-43.028,95.934-95.922C608.053,328.155,565.017,285.158,512.119,285.158z M512.119,107.537
	c-254.252,0-510.301,276.467-510.301,276.467s256.049,276.459,510.301,276.459c254.299,0,510.348-276.459,510.348-276.459
	S766.418,107.537,512.119,107.537z M512.119,576.699c-108.034,0-195.639-87.512-195.639-195.697
	c0-108.046,87.605-195.616,195.639-195.616c108.111,0,195.701,87.57,195.701,195.616C707.82,489.188,620.23,576.699,512.119,576.699
	z"/>
<path fill="#D13731" d="M512.143,36.956C320.47,36.956,165.091,192.335,165.091,384S320.47,731.044,512.143,731.044
	c191.665,0,347.044-155.379,347.044-347.044S703.808,36.956,512.143,36.956z M753.766,384c0,47.57-13.874,91.937-37.709,129.373
	L382.761,180.086c37.437-23.835,81.803-37.709,129.381-37.709C645.373,142.377,753.766,250.769,753.766,384z M270.512,384
	c0-47.57,13.874-91.937,37.709-129.366l333.287,333.287c-37.437,23.828-81.795,37.71-129.365,37.71
	C378.896,625.631,270.512,517.23,270.512,384z"/>
</svg>
