<svg xmlns="http://www.w3.org/2000/svg" viewBox="0 0 2000 477" enable-background="new 0 0 2000 477"><path fill="#3A3A3C" d="M42 44h1920v392h-1920z"/><g fill="#fff"><path d="M1204 105h53v264h-53zM521 105v158.567l-26.5 52.632-26.5-52.632v-158.567h-53v158.567l52.836 105.433h52.632l52.532-105.433v-158.567zM309 105h54v264h-54zM1678 158v-53h-157v264h157v-52h-105v-53h105v-53h-105v-53zM152 317v-212h-53v264h158v-52zM783 158v-53h-157v264h157v-52h-105v-53h105v-53h-105v-53zM1889 158v-53h-131.689l-26.311 26.989v105.263l26.31 26.748h79.69v53h-106v52h131.572l26.428-26.485v-105.263l-26.427-26.252h-79.573v-53zM1099 105v212h-52v-212h-53v212h-52v-212h-53v264h236.732l26.268-26.486v-237.514zM0 0v477h2000v-477h-2000zm53 424v-371h1894v371h-1894zM1309 105v264h54v-105.433l60.977 105.433h52.632l-61.403-105h26.316l26.478-26.72v-105.321l-26.481-26.959h-132.519zm106 106h-52v-53h52v53z"/></g></svg>